<svg height="512" viewBox="0 0 58 58" width="512" xmlns="http://www.w3.org/2000/svg"><g id="Page-1" fill="none" fill-rule="evenodd"><g id="022---Trophy" fill="rgb(0,0,0)" fill-rule="nonzero" transform="translate(-1)"><path id="Shape" d="m18 49-2 3h28l-2-3z"/><rect id="Rectangle-path" height="4" rx="1" width="32" x="14" y="54"/><path id="Shape" d="m58.6749 20.3365c-.97-.5755-2.2623-.2916-3.9827 1.0171-.4526823.3400962-.8813972.7109742-1.2831 1.11.2012-.7033.3881-1.4081.5556-2.1121 1.2208976-1.6028289 1.9306956-3.5362434 2.0369-5.5483.3642-3.5013-.4591-6.4751-1.4662-6.9481-1.0286.4627-1.949 3.1564-2.4505 6.3487-.338668 1.7880129-.3325924 3.6242673.0179 5.41-.0065.0216-.0219.0375-.0271.06-.1663.7148-.3616 1.4311-.5647 2.1461-.1302899-.5412715-.3145455-1.0681087-.55-1.5726-.9108-1.9406-2.0408-2.6433-3.117-2.6648-.3112295.0300847-.5719813.2483312-.6564.5494-.4747744 1.5865716-.3406296 3.2931916.3762 4.7861.4144196 1.322144 1.3483233 2.4191216 2.5874 3.0392-.49 1.3178-1.0455667 2.6281-1.6667 3.9309-.0582689-.6459225-.1922547-1.282758-.3992-1.8974-.7212-2.1294-1.8527-3.0724-3.0135-3.3311-.3192502-.0490455-.6338006.112932-.7793.4013-.7167323 1.5258209-.7902041 3.2756678-.2039 4.8562.306358 1.4975677 1.1924878 2.8132283 2.4651 3.66-.7091333 1.2272667-1.4664667 2.4188333-2.272 3.5747.0355496-.7281539-.0253448-1.4578117-.1811-2.17-.5-2.2971-1.5891-3.48-2.7914-3.985-.3126688-.1214985-.6680145-.0236403-.8744.2408-.805 1.0567-1.19 2.5991-.7944 4.8652.1641675 1.6547359.9589874 3.1827841 2.2196 4.2672-.6758.8088-1.6693 1.9239-2.3051 2.63h-1.5549v-.41c-.0008612-.7387759-.2470845-1.4563408-.7-2.04-.4605221-.582636-1.100152-.9973412-1.82-1.18-.9414298-.2329578-1.731939-.8697568-2.16-1.74l-.32-.63v-5c-.18.12-.37.23-.56.34-1.507633.8800638-3.372367.8800638-4.88 0-.19-.11-.38-.22-.56-.34v5l-.32.63c-.428061.8702432-1.2185702 1.5070422-2.16 1.74-1.4787216.3689072-2.5172835 1.6959584-2.52 3.22v.41h-1.5553c-.6358-.7062-1.6293-1.8213-2.3051-2.63 1.2606481-1.0842267 2.055605-2.6120836 2.22-4.2667.3956-2.2661.0106-3.8085-.7944-4.8652-.2063855-.2644403-.5617312-.3622985-.8744-.2408-1.2023.5046-2.291 1.6879-2.7914 3.985-.1557552.7121883-.2166496 1.4418461-.1811 2.17-.8034-1.1538667-1.5609-2.3457-2.2725-3.5755 1.2726122-.8467717 2.158742-2.1624323 2.4651-3.66.5864725-1.5807102.5129992-3.3308084-.2039-4.8568-.1454994-.288368-.4600498-.4503455-.7793-.4013-1.1608.2587-2.2923 1.2017-3.0135 3.3311-.2070167.6147992-.3410365 1.2518046-.3993 1.8979-.6168-1.295-1.1723-2.6055-1.6665-3.9315 1.2390471-.6200397 2.1729213-1.7169891 2.5873-3.0391.7168296-1.4929084.8509744-3.1995284.3762-4.7861-.0844187-.3010688-.3451705-.5193153-.6564-.5494-1.0762.0215-2.2062.7242-3.117 2.6648-.23545513.5045256-.41971072 1.0313961-.55 1.5727-.2031-.7151-.3984-1.4314-.5647-2.1462-.0051-.0222-.0207-.0381-.0272-.06.35056967-1.7857219.35667923-3.6219848.018-5.41-.5015-3.1923-1.4219-5.886-2.45-6.3487-1.0071.473-1.83 3.4468-1.4662 6.9481.10620445 2.0120566.81600241 3.9454711 2.0369 5.5483.1675.704.3544 1.4088.5556 2.1121-.40170275-.3990258-.83041769-.7699038-1.2831-1.11-1.72-1.3087-3.013-1.5926-3.9827-1.0171-.27950565.2529333-.39780183.6387685-.3081 1.0049.29713114 1.9603365 1.41854426 3.6999771 3.0813 4.78 1.619 1.0537 2.9619 1.0893 3.91.6237.5183 1.3858 1.1041 2.7596 1.7517 4.1104-.54570135-.3637886-1.1213405-.6805289-1.7207-.9468-2.0445-.9236-3.4942-.9182-4.4615-.135-.26040594.2899443-.33222105.7032016-.1849 1.064.6383601 1.9068071 2.11650382 3.4151772 4.01 4.092 1.39970834.6803215 3.0540339.5745452 4.3557-.2785.7477 1.2882 1.5457 2.5392 2.3865 3.7408-.682559-.2911115-1.3919749-.514711-2.1181-.6676-2.2947-.5049-3.847-.1935-4.7743.7965-.2375752.3261659-.25886819.7622399-.0542 1.11.97264125 1.8122261 2.76127729 3.042535 4.8015 3.3027 1.655647.3999085 3.4009889-.0705131 4.6314-1.2483.3444.4114.7529.8828 1.17 1.3558-.4618595.0878478-.7973735.4896775-.8014.9598v2c0 .5522847.4477153 1 1 1h24c.5522847 0 1-.4477153 1-1v-2c-.0040003-.4701383-.3394492-.8720239-.8013-.96.4169-.473.8254-.9446 1.17-1.356 1.2303111 1.1778959 2.975616 1.6484683 4.6313 1.2487 2.0402457-.2602599 3.8288508-1.490685 4.8014-3.303.2044041-.3476136.1831152-.7833667-.0542-1.1094-.9274-.99-2.48-1.3017-4.7735-.7968-.7264744.1529751-1.4362266.376709-2.1191.668.8446-1.2066667 1.6404333-2.4537667 2.3875-3.7413 1.3016481.8530775 2.9559743.9588918 4.3557.2786 1.8934962-.6768228 3.3716399-2.1851929 4.01-4.092.1473211-.3607984.0755059-.7740557-.1849-1.064-.9673-.7832-2.417-.7886-4.4615.135-.5995488.2663276-1.1753577.5831696-1.7212.9471.6508-1.3581333 1.2347333-2.7281333 1.7518-4.11.9482.4656 2.2911.43 3.91-.6238 1.6627557-1.0800229 2.7841689-2.8196635 3.0813-4.78.0895102-.3660929-.0288943-.7517905-.3084-1.0046z"/><path id="Shape" d="m14.5 13h1.75c.0502851-.0060329.1000092-.0160647.1487-.03l.0013.01c1.1326982 7.4342809 5.6202343 13.9351241 12.17 17.63.8824262.5199929 1.9775738.5199929 2.86 0 6.5497657-3.6948759 11.0373018-10.1957191 12.17-17.63l.0013-.01c.0486908.0139353.0984149.0239671.1487.03h1.75c3.0361497-.0034168 5.4965832-2.4638503 5.5-5.5-.0035268-3.03610409-2.4638959-5.49647323-5.5-5.5h-1.79c-.0568123.00619128-.1129436.01753804-.1677.0339l-.0023-.0139c-.09-.52-.18-.95-.27-1.31-.1052194-.41695783-.4799715-.70934685-.91-.71h-24.72c-.4300285.00065315-.8047806.29304217-.91.71-.09.36-.18.79-.27 1.31l-.0023.0139c-.0547564-.01636196-.1108877-.02770872-.1677-.0339h-1.79c-3.0361041.00352677-5.49647323 2.46389591-5.5 5.5.00341679 3.0361497 2.4638503 5.4965832 5.5 5.5zm31-9c1.9316497.003248 3.496752 1.56835034 3.5 3.5-.0023143 1.93203721-1.5679628 3.4976857-3.5 3.5h-1.63c.2403185-2.3278912.2269064-4.67500723-.04-7zm-33.4688 1.0225c.6516782-.65936056 1.541756-1.02800305 2.4688-1.0225l1.67-.00006074c-.2669064 2.32505351-.2803185 4.67216954-.04 7.00006074h-1.63c-1.9320372-.0023143-3.4976857-1.56796279-3.5-3.5-.0046949-.93115547.3672088-1.82466909 1.0312-2.4775z"/></g></g></svg>