<svg id="Capa_1" enable-background="new 0 0 48 58" height="512" viewBox="0 0 48 58" width="512" xmlns="http://www.w3.org/2000/svg"><g id="Page-1"><g transform="translate(-1)"><path id="Shape" d="m36 37h-3l-1.13-5.08c-.039-.176-.089-.35-.15-.52-1.308 1.09-2.706 2.067-4.18 2.92-1.572.907-3.508.907-5.08 0-1.474-.853-2.872-1.83-4.18-2.92-.061.17-.111.344-.15.52l-1.13 5.08h-3c-.552.002-.998.448-1 1v10h-2c-.552 0-1 .448-1 1v3h30v-3c0-.552-.448-1-1-1h-2v-10c-.002-.552-.448-.998-1-1zm-5 8c-.003 1.103-.897 1.997-2 2h-8c-1.103-.003-1.997-.897-2-2v-3c.003-1.103.897-1.997 2-2h8c1.103.003 1.997.897 2 2z"/><path id="Rectangle-path" d="m8 54h34c.552 0 1 .448 1 1v2c0 .552-.448 1-1 1h-34c-.552 0-1-.448-1-1v-2c0-.552.448-1 1-1z"/><path d="m10.096 5.075c-2.379.227-4.578 1.364-6.14 3.172-1.178 1.584-1.281 3.723-.26 5.413.971 1.665 2.754 2.489 4.643 3.362.545.252 1.086.502 1.602.77.678.354 1.317.777 1.907 1.263-1.606-4.474-2.204-9.248-1.752-13.98z" fill="none"/><path d="m39.904 5.075c.453 4.732-.146 9.506-1.752 13.98.59-.485 1.229-.908 1.906-1.262.518-.269 1.059-.519 1.604-.771 1.889-.873 3.672-1.697 4.645-3.366 1.019-1.687.917-3.822-.258-5.404-1.563-1.811-3.764-2.949-6.145-3.177z" fill="none"/><path d="m47.616 7.012c-1.947-2.287-4.721-3.709-7.714-3.957-.079-.003-.159.004-.236.021-.146-.954-.312-1.744-.456-2.326-.113-.443-.513-.752-.97-.75h-26.48c-.457-.002-.857.307-.97.75-.144.582-.31 1.37-.456 2.325-.078-.017-.157-.024-.236-.02-2.991.247-5.763 1.668-7.71 3.952-1.684 2.229-1.851 5.256-.422 7.656 1.29 2.213 3.545 3.255 5.534 4.174.517.239 1.029.476 1.519.729 1.328.652 2.435 1.682 3.181 2.959.78 1.629 1.009 3.468.653 5.239-.151.895-.775 2.36-2.112 2.184-1.093-.187-1.912-1.105-1.975-2.212-.027-.392.106-.778.368-1.07.362-.412.325-1.039-.084-1.405s-1.036-.334-1.406.071c-.62.692-.935 1.605-.873 2.532.12 2.061 1.666 3.757 3.708 4.066.162.022.324.033.487.033 1.912 0 3.465-1.524 3.858-3.866.179-1.051.215-2.122.106-3.183 2.259 3.145 5.172 5.763 8.538 7.675.946.55 2.114.55 3.06 0 3.367-1.912 6.28-4.53 8.538-7.674-.109 1.06-.073 2.13.105 3.18.396 2.344 1.947 3.868 3.859 3.868.163 0 .326-.011.487-.033 2.036-.306 3.581-1.993 3.707-4.048.066-.933-.249-1.853-.872-2.55-.37-.405-.997-.437-1.406-.071s-.446.993-.084 1.405c.265.298.398.69.367 1.088-.069 1.101-.886 2.009-1.974 2.194-1.349.175-1.962-1.29-2.113-2.186-.355-1.771-.126-3.609.654-5.237.747-1.277 1.853-2.305 3.181-2.957.49-.254 1.003-.491 1.52-.73 1.989-.919 4.244-1.961 5.536-4.178 1.43-2.398 1.264-5.421-.417-7.648zm-37.675 10.78c-.517-.268-1.058-.518-1.602-.77-1.889-.873-3.672-1.697-4.643-3.362-1.021-1.69-.918-3.829.26-5.413 1.562-1.809 3.761-2.945 6.14-3.173-.453 4.732.146 9.506 1.752 13.98-.59-.485-1.229-.908-1.907-1.262zm36.365-4.136c-.973 1.668-2.756 2.493-4.645 3.366-.545.252-1.086.502-1.604.771-.677.353-1.316.776-1.906 1.262 1.606-4.474 2.205-9.248 1.752-13.98 2.381.228 4.582 1.366 6.144 3.177 1.176 1.582 1.278 3.718.259 5.404z"/></g></g></svg>