<svg height="512" viewBox="0 0 44 56" width="512" xmlns="http://www.w3.org/2000/svg"><g id="Page-1" fill="none" fill-rule="evenodd"><g id="005---Rosette" fill="rgb(0,0,0)" fill-rule="nonzero" transform="translate(-1)"><path id="Shape" d="m32.2832 48.7451c.2389967-.5801266.7335598-1.0165862 1.3389-1.1816l4.4409-1.18-4.3753-4.9587c-.6771996.1854489-1.3832162.2419968-2.0813.1667l-1.5464-.1784c-.8957544-.1085271-1.7997096.1219027-2.5342.646l-1.2505.896c-.9547087.6849948-2.1002739 1.053186-3.2753 1.0527-.1345 0-.2681-.0212-.4024-.0308l7.962 9.021z"/><path id="Shape" d="m15.94 41.4131-1.5463.1787c-.1947756.0170215-.390317.0236975-.5858.02l-3.2956 11.67 4.51-.8642c.6276297-.1204921 1.2748426.069144 1.7382.5093l3.3821 3.0731 2.5174-8.9293-4.6758-5.2978c-.6319226-.3161401-1.3423105-.4411756-2.0442-.3598z"/><circle id="Oval" cx="23" cy="21.048" r="13"/><path id="Shape" d="m2.6221 24.1738c.85835939 1.080689 1.24442958 2.461968 1.0708 3.8311l-.1875 1.478c-.15551523 1.4732346.69457658 2.8681929 2.0752 3.4053l1.4384.5889c1.28534095.5155672 2.32160251 1.5080794 2.8921 2.77l.6158 1.374c.659636 1.3747351 2.124166 2.1739613 3.6372 1.9849l1.5463-.1787c.2192943-.0257152.4399031-.0386038.6607-.0386.9286987.0019114 1.8423704.2345473 2.6589.677.0152.0071.0278.018.0426.0258.1955305.1026133.3847362.2168514.5666.3421l1.25.897c1.2663179.8897966 2.9547352.8895566 4.2208-.0006l1.25-.896c1.1382613-.8147168 2.5401882-1.1740096 3.93-1.0072l1.5463.1787c1.5134286.1911433 2.9791015-.6087066 3.6372-1.9849l.6158-1.3735c.5705915-1.2621113 1.6069862-2.2547929 2.8925-2.7705l1.4375-.5884c1.3808338-.5368559 2.2310349-1.9319936 2.0752-3.4053l-.1865-1.4785c-.1740906-1.36909.2122335-2.750452 1.0713-3.8306l.9365-1.1943c.918011-1.1420938.918011-2.7690062 0-3.9111l-.9375-1.1949c-.8583245-1.0808395-1.2441262-2.4623342-1.07-3.8315l.1865-1.4761c.1558425-1.4736591-.6946724-2.86908688-2.0759-3.4059l-1.4379-.5889c-1.2850439-.51576753-2.3211877-1.5079878-2.8921-2.7695l-.6158-1.3745c-.657471-1.37674099-2.1236911-2.17668797-3.6372-1.9844l-1.5459.1784c-1.3898336.16691867-2.791811-.19242276-3.93-1.0073l-1.25-.8955c-1.2659661-.89068857-2.9548339-.89068857-4.2208 0l-1.25.896c-1.1384741.81358612-2.539761 1.17264538-3.9292 1.0068l-1.5463-.1787c-1.5137876-.19318858-2.9805689.60722591-3.6372 1.9848l-.6158 1.3741c-.57105791 1.26166637-1.60731756 2.25403948-2.8925 2.77l-1.438.5884c-1.38073264.53720246-2.23083431 1.9323409-2.0752 3.4057l.1875 1.4771c.17381799 1.3692065-.2121087 2.7506322-1.0704 3.8315l-.938 1.1948c-.91798536 1.1419529-.91798536 2.7687471 0 3.9107zm20.3779-18.1259c8.2842712 0 15 6.7157288 15 15s-6.7157288 15-15 15-15-6.7157288-15-15c.00936852-8.2803876 6.7196124-14.99063148 15-15z"/></g></g></svg>